<mxfile host="app.diagrams.net" modified="2023-05-23T17:16:08.175Z" agent="Mozilla/5.0 (Windows NT 10.0; Win64; x64) AppleWebKit/537.36 (KHTML, like Gecko) Chrome/113.0.0.0 Safari/537.36" version="21.3.3" etag="Vvu9kpRH6vuj29wQTx_R" type="github">
  <diagram name="Sayfa -1" id="agPv6QkgSEZxaYNi14T1">
    <mxGraphModel>
      <root>
        <mxCell id="0" />
        <mxCell id="1" parent="0" />
      </root>
    </mxGraphModel>
  </diagram>
</mxfile>
